# xmcd
# 
# Track frame offsets:
#     150
#     13434
#     28686
#     42534
#     55129
#     72258
#     85581
#     100759
#     117226
#     131438
# 
# Disc length: 1981
# 
# Revision: 5
# Processed by: cddbd v1.5.2PL0 Copyright (c) Steve Scherf et al.
# Submitted via: BonkEnc v1.0.8
# 
DISCID=8307bb0a
DTITLE=Pistas musicales - Canta como Nicho
DYEAR=2003
DGENRE=Pop
TTITLE0=CONTIGO APRENDI
TTITLE1=CANTARES
TTITLE2=Y COMO ES EL
TTITLE3=AY AMOR
TTITLE4=EL BREVE ESPACIO
TTITLE5=TE AMO
TTITLE6=FUEGO CONTRA FUEGO
TTITLE7=SANTA LUCIA
TTITLE8=MARIPOSA TEKNICOLOR
TTITLE9=LO QUE NO FUE NO SERA
EXTD=
EXTT0=
EXTT1=
EXTT2=
EXTT3=
EXTT4=
EXTT5=
EXTT6=
EXTT7=
EXTT8=
EXTT9=
PLAYORDER=
